<svg width="720" height="420" viewBox="0 0 720 420" fill="none" xmlns="http://www.w3.org/2000/svg" role="img" aria-labelledby="title desc">
  <title id="title">Original VOD thumbnail graphic</title>
  <desc id="desc">A copper-toned video screen hovering above desert canyon shapes.</desc>
  <rect width="720" height="420" rx="28" fill="#1D120B"/>
  <circle cx="578" cy="88" r="112" fill="#C47635" opacity=".24"/>
  <path d="M0 315L92 254L178 307L262 232L360 310L458 240L552 302L720 221V420H0V315Z" fill="#3B2416"/>
  <path d="M0 348L104 296L211 354L308 286L422 342L520 288L720 332V420H0V348Z" fill="#6C351B" opacity=".8"/>
  <rect x="162" y="98" width="396" height="220" rx="24" fill="#120C08" stroke="#FFF4E2" stroke-opacity=".2" stroke-width="4"/>
  <rect x="190" y="126" width="340" height="164" rx="16" fill="#25160D"/>
  <path d="M338 169L422 208L338 247V169Z" fill="#F2A65A"/>
  <path d="M190 290H530" stroke="#F2A65A" stroke-opacity=".5" stroke-width="6"/>
  <circle cx="214" cy="290" r="10" fill="#8DFFB0"/>
</svg>
